HIERARCHY
ROOT Hips
{
	OFFSET -0.001795 -0.223333 0.028219
	CHANNELS 6 Xposition Yposition Zposition Zrotation Yrotation Xrotation 
	JOINT LeftUpLeg
	{
		OFFSET 0.069520 -0.091406 -0.006815
		CHANNELS 3 Zrotation Yrotation Xrotation
		JOINT LeftLeg
		{
			OFFSET 0.034277 -0.375199 -0.004496
			CHANNELS 3 Zrotation Yrotation Xrotation
			JOINT LeftFoot
			{
				OFFSET -0.013596 -0.397961 -0.043693
				CHANNELS 3 Zrotation Yrotation Xrotation
				JOINT LeftToe
				{
					OFFSET 0.026358 -0.055791 0.119288
					CHANNELS 3 Zrotation Yrotation Xrotation
					End Site
					{
						OFFSET 0.000000 0.000000 0.000000
					}
				}
			}
		}
	}
	JOINT RightUpLeg
	{
		OFFSET -0.067670 -0.090522 -0.004320
		CHANNELS 3 Zrotation Yrotation Xrotation
		JOINT RightLeg
		{
			OFFSET -0.038290 -0.382569 -0.008850
			CHANNELS 3 Zrotation Yrotation Xrotation
			JOINT RightFoot
			{
				OFFSET 0.015774 -0.398415 -0.042312
				CHANNELS 3 Zrotation Yrotation Xrotation
				JOINT RightToe
				{
					OFFSET -0.025372 -0.048144 0.123348
					CHANNELS 3 Zrotation Yrotation Xrotation
					End Site
					{
						OFFSET 0.000000 0.000000 0.000000
					}
				}
			}
		}
	}
	JOINT Spine
	{
		OFFSET -0.002533 0.108963 -0.026696
		CHANNELS 3 Zrotation Yrotation Xrotation
		JOINT Spine1
		{
			OFFSET 0.005487 0.135180 0.001092
			CHANNELS 3 Zrotation Yrotation Xrotation
			JOINT Spine2
			{
				OFFSET 0.001457 0.052922 0.025425
				CHANNELS 3 Zrotation Yrotation Xrotation
				JOINT Neck
				{
					OFFSET -0.002778 0.213870 -0.042857
					CHANNELS 3 Zrotation Yrotation Xrotation
					JOINT Head
					{
						OFFSET 0.005152 0.064970 0.051349
						CHANNELS 3 Zrotation Yrotation Xrotation
						End Site
						{
							OFFSET 0.000000 0.000000 0.000000
						}
					}
				}
				JOINT LeftShoulder
				{
					OFFSET 0.078845 0.121749 -0.034090
					CHANNELS 3 Zrotation Yrotation Xrotation
					JOINT LeftArm
					{
						OFFSET 0.090977 0.030469 -0.008868
						CHANNELS 3 Zrotation Yrotation Xrotation
						JOINT LeftForeArm
						{
							OFFSET 0.259612 -0.012772 -0.027456
							CHANNELS 3 Zrotation Yrotation Xrotation
							JOINT LeftHand
							{
								OFFSET 0.249234 0.008986 -0.001171
								CHANNELS 3 Zrotation Yrotation Xrotation
								End Site
								{
									OFFSET 0.000000 0.000000 0.000000
								}
							}
						}
					}
				}
				JOINT RightShoulder
				{
					OFFSET -0.081759 0.118833 -0.038615
					CHANNELS 3 Zrotation Yrotation Xrotation
					JOINT RightArm
					{
						OFFSET -0.096012 0.032551 -0.009143
						CHANNELS 3 Zrotation Yrotation Xrotation
						JOINT RightForeArm
						{
							OFFSET -0.253742 -0.013329 -0.021401
							CHANNELS 3 Zrotation Yrotation Xrotation
							JOINT RightHand
							{
								OFFSET -0.255298 0.007772 -0.005559
								CHANNELS 3 Zrotation Yrotation Xrotation
								End Site
								{
									OFFSET 0.000000 0.000000 0.000000
								}
							}
						}
					}
				}
			}
		}
	}
}
MOTION
Frames: 12
Frame Time: 0.050000
0.000000 0.951312 0.000000 -0.890360 -9.045542 1.782270 1.836808 0.047493 0.576095 0.787037 0.038720 -3.417235 -3.522987 -4.276558 7.270998 0.000000 0.000000 0.000000 0.355382 0.086292 -1.072597 -1.621097 0.138847 -0.100937 2.009136 0.333187 6.860593 0.000000 0.000000 0.000000 4.323932 0.029019 -0.989420 -3.908811 1.752087 -3.073707 -3.068542 6.786040 7.939717 6.116490 -2.554586 -14.862167 0.000000 0.000000 0.000000 -17.688654 -7.666642 1.834249 -54.468388 -10.221149 -2.128390 -8.601919 -22.653583 2.511194 0.000000 0.000000 0.000000 15.106652 0.683766 -0.491161 64.778398 5.985132 -3.287029 13.390666 29.316620 4.564335 0.000000 0.000000 0.000000 
-0.000473 0.950537 0.000949 -1.140857 -9.767307 2.372787 2.712443 0.072482 0.931738 -0.183214 0.190180 -5.034613 -4.089025 -5.230013 7.644363 0.000000 0.000000 0.000000 0.449738 0.141569 -1.692516 -1.692741 0.151845 0.059954 1.788031 -0.051894 6.595591 0.000000 0.000000 0.000000 4.817585 0.086385 -1.719528 -3.954817 1.797811 -2.308352 -3.809946 7.600461 7.294813 6.231278 -2.340916 -16.223171 0.000000 0.000000 0.000000 -18.009269 -7.762840 1.681028 -54.110914 -10.869697 -1.721899 -9.003948 -21.846654 2.459989 0.000000 0.000000 0.000000 14.790756 -0.135067 -0.773069 66.113236 5.349116 -3.578228 12.579114 29.305566 4.404404 0.000000 0.000000 0.000000 
-0.000806 0.950112 0.001580 -0.643250 -9.696000 2.491172 2.492143 0.043134 0.556381 -0.486023 0.193114 -4.388717 -4.186508 -5.548626 7.321600 0.000000 0.000000 0.000000 0.226283 0.190732 -2.127093 -2.060470 0.232525 0.846487 0.965338 -1.428290 5.908646 0.000000 0.000000 0.000000 4.737038 0.113605 -2.060818 -3.807591 1.691077 -3.253122 -4.553390 8.098303 7.962300 6.114255 -2.373478 -15.205022 0.000000 0.000000 0.000000 -17.329893 -7.864904 1.659836 -54.268012 -10.972933 -1.747727 -8.932164 -20.306429 2.255688 0.000000 0.000000 0.000000 16.228805 0.443735 -0.411959 64.997826 5.103231 -3.783800 10.982232 28.775596 3.965259 0.000000 0.000000 0.000000 
-0.001255 0.949754 0.002235 -0.573210 -9.856574 2.660101 2.771828 0.048420 0.636999 -0.871926 0.244702 -4.921480 -4.842736 -6.605092 7.709203 0.000000 0.000000 0.000000 0.119869 0.208794 -2.288742 -1.806218 0.203132 0.775460 0.638910 -2.151667 5.917389 0.000000 0.000000 0.000000 4.616254 0.160252 -2.624125 -3.675653 1.663729 -2.413453 -4.885384 8.362413 7.342048 6.193963 -2.445207 -14.772620 0.000000 0.000000 0.000000 -17.306687 -7.807707 1.528769 -54.651694 -11.673926 -1.357329 -8.391139 -19.103449 2.013702 0.000000 0.000000 0.000000 15.978337 0.313959 -0.420592 65.345966 5.087552 -3.709164 10.448372 28.288617 3.764789 0.000000 0.000000 0.000000 
-0.001707 0.949955 0.002833 -0.506598 -9.790979 2.405066 2.427534 0.054442 0.686873 -0.451943 0.207470 -4.883290 -4.347366 -5.631927 7.833031 0.000000 0.000000 0.000000 -0.039849 0.190170 -2.044739 -1.687032 0.187351 0.694315 0.502047 -2.413792 5.868039 0.000000 0.000000 0.000000 4.661371 0.164462 -2.622750 -3.762401 1.711258 -2.249948 -4.927747 8.502718 7.414142 6.241596 -2.472564 -14.682148 0.000000 0.000000 0.000000 -17.419793 -7.952542 1.551210 -54.310239 -11.655205 -1.358850 -8.857648 -18.615556 2.030628 0.000000 0.000000 0.000000 16.073137 0.069423 -0.510557 65.264943 4.912449 -3.810877 10.020255 27.863866 3.609958 0.000000 0.000000 0.000000 
-0.002068 0.950333 0.003419 -0.527039 -9.561045 2.304601 2.460977 0.070717 0.904619 -0.617106 0.235552 -5.296395 -4.269357 -5.356597 8.084079 0.000000 0.000000 0.000000 -0.115070 0.163934 -1.740108 -1.409241 0.150309 0.488030 0.531640 -2.470623 6.127458 0.000000 0.000000 0.000000 4.566475 0.167235 -2.658904 -3.668139 1.666459 -2.325670 -4.787478 8.429992 7.574812 6.072362 -2.412624 -14.370960 0.000000 0.000000 0.000000 -17.644497 -7.807093 1.459271 -54.488519 -11.673878 -1.361680 -8.549882 -18.410195 1.959891 0.000000 0.000000 0.000000 15.751775 0.329833 -0.356204 65.375591 4.701844 -3.937283 9.592997 27.054310 3.387361 0.000000 0.000000 0.000000 
-0.002255 0.950669 0.003859 -0.521089 -9.367780 2.241421 2.437417 0.071522 0.922008 -0.530680 0.232678 -5.419910 -4.202860 -5.104884 8.343162 0.000000 0.000000 0.000000 -0.142158 0.149878 -1.578641 -1.381834 0.138084 0.301654 0.679435 -2.179727 6.206158 0.000000 0.000000 0.000000 4.623513 0.164925 -2.619749 -3.719670 1.695587 -2.223966 -4.726708 8.268500 7.687538 6.267912 -2.492308 -14.731004 0.000000 0.000000 0.000000 -17.711593 -7.254574 1.189682 -54.724540 -11.304845 -1.552527 -8.911987 -18.574647 2.038287 0.000000 0.000000 0.000000 15.817323 0.096043 -0.490565 65.318070 4.442666 -4.097204 9.434418 26.876353 3.324001 0.000000 0.000000 0.000000 
-0.002357 0.950837 0.004198 -0.579439 -9.247394 2.342902 2.525242 0.050401 0.670394 -0.539157 0.228437 -5.286563 -4.082466 -4.953266 8.156324 0.000000 0.000000 0.000000 -0.196563 0.151194 -1.573440 -1.133925 0.112015 0.232279 0.679432 -2.079474 6.043917 0.000000 0.000000 0.000000 4.582686 0.171142 -2.715693 -3.742159 1.703789 -2.287115 -4.412275 8.242715 7.846614 6.039959 -2.317141 -14.950760 0.000000 0.000000 0.000000 -17.725184 -7.095535 1.117927 -54.891989 -10.907572 -1.753775 -9.041085 -18.815581 2.088205 0.000000 0.000000 0.000000 15.567599 -0.031493 -0.548535 65.302208 4.328076 -4.164862 9.586005 26.224289 3.261486 0.000000 0.000000 0.000000 
-0.002445 0.950823 0.004517 -0.591717 -9.343665 2.374097 2.562705 0.039126 0.518137 -0.571816 0.222217 -5.028582 -3.871597 -4.660503 7.956498 0.000000 0.000000 0.000000 -0.187014 0.146491 -1.527651 -1.003343 0.090751 0.048951 0.796670 -1.868944 6.106721 0.000000 0.000000 0.000000 4.617303 0.174059 -2.743090 -3.824441 1.737563 -2.368757 -4.220212 8.204133 8.041115 5.998323 -2.288345 -15.084012 0.000000 0.000000 0.000000 -17.684066 -6.756956 0.989629 -55.186255 -10.720532 -1.878281 -9.218216 -18.794052 2.121356 0.000000 0.000000 0.000000 15.692758 0.021241 -0.551898 64.885231 4.242699 -4.227010 9.907531 26.070557 3.301779 0.000000 0.000000 0.000000 
-0.002567 0.950888 0.004874 -0.644077 -9.614663 2.387164 2.547352 0.035485 0.450539 -0.588768 0.223435 -5.014273 -3.620706 -4.294197 7.785688 0.000000 0.000000 0.000000 -0.265242 0.148302 -1.522016 -0.815813 0.065400 -0.124521 0.927550 -1.649316 6.180073 0.000000 0.000000 0.000000 4.660739 0.173377 -2.719943 -3.905462 1.764866 -2.563988 -3.960190 8.405973 8.271195 5.908454 -2.182490 -15.433658 0.000000 0.000000 0.000000 -17.571933 -6.567936 0.911468 -55.473032 -10.568676 -1.985277 -9.285252 -18.726079 2.126921 0.000000 0.000000 0.000000 15.721181 -0.005726 -0.564377 64.607369 4.275346 -4.222038 10.388770 25.516440 3.323134 0.000000 0.000000 0.000000 
-0.002699 0.950670 0.005345 -0.689005 -9.859771 2.403913 2.649113 0.038437 0.471617 -0.668574 0.229053 -4.972498 -3.471395 -4.100697 7.637276 0.000000 0.000000 0.000000 -0.183942 0.148476 -1.555888 -0.815444 0.066763 -0.088612 0.947880 -1.588785 6.113959 0.000000 0.000000 0.000000 4.736914 0.175624 -2.727546 -3.933344 1.776365 -2.555648 -3.931573 8.429144 8.274095 5.980462 -2.243124 -15.425612 0.000000 0.000000 0.000000 -17.562246 -6.520351 0.919148 -55.364211 -10.472317 -2.033278 -9.283475 -18.631949 2.120317 0.000000 0.000000 0.000000 15.647989 0.108060 -0.527871 64.668633 4.213347 -4.264271 10.855391 25.263713 3.375234 0.000000 0.000000 0.000000 
-0.002829 0.950534 0.005869 -0.683982 -10.034073 2.424159 2.670921 0.046360 0.564507 -0.763824 0.241310 -5.089416 -3.459435 -4.097580 7.628874 0.000000 0.000000 0.000000 -0.072814 0.140220 -1.510128 -0.813461 0.071001 0.006947 0.935466 -1.547936 5.969837 0.000000 0.000000 0.000000 4.750142 0.178153 -2.749821 -3.978477 1.794756 -2.580494 -3.771695 8.485058 8.278257 5.974524 -2.202015 -15.721196 0.000000 0.000000 0.000000 -17.505844 -6.374140 0.864856 -55.442670 -10.407918 -2.068026 -9.175894 -18.339958 2.071348 0.000000 0.000000 0.000000 15.437004 0.004311 -0.586474 64.746364 4.122603 -4.312230 11.281005 25.133007 3.441789 0.000000 0.000000 0.000000 
